<svg id="Layer_1" data-name="Layer 1" xmlns="http://www.w3.org/2000/svg" viewBox="0 0 37.31 37.31"><defs><style>.cls-1{fill:#fff;}</style></defs><rect class="cls-1" x="6.45" y="3.7" width="37.31" height="37.31" rx="18.66" transform="translate(41.02 -6.45) rotate(90)"/><path d="M35.1,19.65a4.48,4.48,0,0,0-4.48-4.48H19.16a4.48,4.48,0,0,0-4.48,4.48V25a4.49,4.49,0,0,0,4.48,4.48H30.62A4.49,4.49,0,0,0,35.1,25Zm-6.74,3.06-5.14,2.54c-.2.11-.88,0-.88-.26V19.77c0-.23.69-.38.89-.26l4.92,2.67C28.35,22.3,28.57,22.6,28.36,22.71Z" transform="translate(-6.45 -3.7)"/></svg>