<svg id="Layer_1" data-name="Layer 1" xmlns="http://www.w3.org/2000/svg" viewBox="0 0 154.3 79.27"><defs><style>.cls-1{fill:#231f20;}</style></defs><polygon class="cls-1" points="33.89 33.94 49.64 33.94 51.76 25.96 51.76 25.94 32.11 25.94 26 25.94 10.25 25.94 8.12 33.91 8.12 33.94 27.77 33.94 33.89 33.94"/><path class="cls-1" d="M187.68,79.13,176.31,52.78H146.4l3.18-12h-99l-2.13,8v0h90.76L126.27,97.34H86.7a15.93,15.93,0,0,0-28.88,0H35.51l-2.13,8h23a16,16,0,0,0,31.82,0h52.27a16,16,0,0,0,31.82,0H180Zm-115.42,33a8,8,0,1,1,8-8A8,8,0,0,1,72.26,112.08Zm84.09,0a8,8,0,1,1,8-8A8,8,0,0,1,156.35,112.08ZM174,97.34h-3.22a15.93,15.93,0,0,0-28.88,0h-7.36l9.72-36.56h26.78l8.14,18.87Z" transform="translate(-33.38 -40.81)"/></svg>