<svg id="Layer_1" data-name="Layer 1" xmlns="http://www.w3.org/2000/svg" viewBox="0 0 143.62 95.66"><defs><style>.cls-1{fill:#231f20;}</style></defs><path class="cls-1" d="M179.64,74.73,166.27,49.1H134.08V37.47l-32.51-.11L94.5,45.47h31.58V93.66H82.22a15.94,15.94,0,0,0-28.88,0H45V71.07H37v30.59H51.87a16,16,0,0,0,31.82,0H136a16,16,0,0,0,31.81,0h11.86ZM67.78,108.41a8,8,0,1,1,8-8A8,8,0,0,1,67.78,108.41Zm84.09,0a8,8,0,1,1,8-8A8,8,0,0,1,151.87,108.41Zm19.77-14.75h-5.32a15.95,15.95,0,0,0-28.89,0h-3.35V57.1h27.34l10.22,19.6Z" transform="translate(-36.02 -20.75)"/><polygon class="cls-1" points="57.56 5.6 51.85 0 20.76 31.7 5.66 16.6 0 22.26 20.81 43.07 57.56 5.6"/></svg>