<svg id="Layer_1" data-name="Layer 1" xmlns="http://www.w3.org/2000/svg" viewBox="0 0 104.29 104.29"><defs><style>.cls-1{fill:#d6d6d6;}.cls-2{fill:#fff;}</style></defs><circle class="cls-1" cx="52.15" cy="52.15" r="52.15"/><path class="cls-2" d="M60.29,69.74a25.4,25.4,0,0,1,1.46-8.81A18.7,18.7,0,0,1,66,54.14a19,19,0,0,1,6.7-4.36,23.69,23.69,0,0,1,8.76-1.54A23,23,0,0,1,89,49.43a18.15,18.15,0,0,1,6.08,3.43,15.92,15.92,0,0,1,4.1,5.6A18.51,18.51,0,0,1,100.65,66a19.07,19.07,0,0,1-.66,5.33,14,14,0,0,1-1.76,3.88,15.91,15.91,0,0,1-2.51,2.9c-.94.86-1.88,1.69-2.82,2.52-1.12.94-2.15,1.85-3.08,2.73a15.17,15.17,0,0,0-2.47,2.95,12.83,12.83,0,0,0-1.63,3.83,21.32,21.32,0,0,0-.57,5.38H75.63A46.82,46.82,0,0,1,76,89a18.75,18.75,0,0,1,1.28-4.71,15,15,0,0,1,2.16-3.57,24.91,24.91,0,0,1,3-3c.94-.82,1.84-1.59,2.69-2.29A16.33,16.33,0,0,0,87.48,73a10.11,10.11,0,0,0,1.59-2.86,11.24,11.24,0,0,0,.57-3.79,10.24,10.24,0,0,0-.93-4.54,9.32,9.32,0,0,0-2.24-3,8.83,8.83,0,0,0-2.82-1.67A7.91,7.91,0,0,0,81,56.61q-5.46,0-8.06,3.57t-2.6,9.56Zm14,31.9h11.8v11H74.31Z" transform="translate(-30.37 -26.87)"/></svg>