<svg id="Layer_1" data-name="Layer 1" xmlns="http://www.w3.org/2000/svg" viewBox="0 0 24.49 24.49"><defs><style>.cls-1{fill:#fff;opacity:0.9;}.cls-2{fill:#c5c5c5;}</style></defs><circle class="cls-1" cx="12.25" cy="12.25" r="12.25"/><path class="cls-2" d="M10.28,13a6.15,6.15,0,0,1,.34-2.07,4.35,4.35,0,0,1,1-1.59,4.61,4.61,0,0,1,1.57-1,5.6,5.6,0,0,1,2.06-.36A5.66,5.66,0,0,1,17,8.2,4.47,4.47,0,0,1,18.45,9a3.87,3.87,0,0,1,1,1.31,4.42,4.42,0,0,1,.35,1.78,4.55,4.55,0,0,1-.15,1.25,3.56,3.56,0,0,1-.42.92,3.84,3.84,0,0,1-.59.68l-.66.59c-.26.22-.5.43-.72.64a3.79,3.79,0,0,0-.58.69,3.06,3.06,0,0,0-.39.9A5.14,5.14,0,0,0,16.12,19H13.88a11,11,0,0,1,.1-1.54,4.09,4.09,0,0,1,.3-1.1,3.46,3.46,0,0,1,.5-.84,6.11,6.11,0,0,1,.72-.72l.63-.53a4,4,0,0,0,.54-.55,2.36,2.36,0,0,0,.37-.68,2.55,2.55,0,0,0,.13-.88A2.49,2.49,0,0,0,17,11.12,2.08,2.08,0,0,0,15.77,10a2,2,0,0,0-.62-.12,2.19,2.19,0,0,0-1.9.84A3.74,3.74,0,0,0,12.64,13Zm3.29,7.49h2.78v2.59H13.57Z" transform="translate(-2.91 -2.91)"/></svg>