<?xml version="1.0" encoding="utf-8"?>
<!-- Generator: Adobe Illustrator 25.2.1, SVG Export Plug-In . SVG Version: 6.00 Build 0)  -->
<svg version="1.1" id="Layer_1" xmlns="http://www.w3.org/2000/svg" xmlns:xlink="http://www.w3.org/1999/xlink" x="0px" y="0px"
	 viewBox="0 0 452 99" style="enable-background:new 0 0 452 99;" xml:space="preserve">
<style type="text/css">
	.st0{fill:#EB2027;}
	.st1{fill:#FFFFFF;}
</style>
<path id="Path_1" class="st0" d="M41.3,46.9c-0.81-0.56-1.79-0.81-2.77-0.7v12.32c0,1.3,0.98,2.2,2.93,2.68s2.93,1.45,2.94,2.9H24.7
	c0-1.45,0.98-2.44,2.95-2.95s2.94-1.39,2.92-2.62V36.47c-0.03-3.47,1.3-5.21,3.97-5.21s4.01,1.74,4,5.21v5.76h2.18
	c6.62,0,9.8-2.57,9.56-7.71c0-3.94-2.05-6.08-6.16-6.42h-12.7c-1.46-0.08-2.89-0.45-4.21-1.09c-1.46-0.43-2.47-1.75-2.51-3.27h17.86
	c10.87,0,16.52,3.59,16.94,10.78c0,4.92-3.08,8.31-9.23,10.18c-0.11,0.53,0.01,1.08,0.33,1.51l25.96,36.43
	c1.08,1.45,1.06,2.6-0.06,3.45c-1.12,0.85-2.23,0.54-3.34-0.93L41.3,46.9z"/>
<path id="Path_2" class="st1" d="M78.27,58.96c0,0.74,0.32,1.11,0.96,1.11h14.46c1.5-0.15,2.6-1.32,3.28-3.51
	c0.34-1.91,2.01-3.29,3.95-3.28l-1.95,8.82c-0.12,1.15-1.1,2.02-2.25,1.99H64.36c0-1.43,0.98-2.39,2.95-2.9
	c1.97-0.5,2.94-1.38,2.91-2.64v-29.3c0.02-1.26-0.95-2.14-2.91-2.64c-1.97-0.5-2.95-1.47-2.95-2.9H95.8c2.07,0,3.1,1.33,3.1,3.99
	l0.41,6.2c-1.43,0-2.5-0.98-3.21-2.95C95.39,28.98,94.44,28,93.26,28h-13.9c-0.52-0.07-1,0.28-1.07,0.8c-0.01,0.09-0.01,0.18,0,0.27
	L78.27,58.96z M88.38,40.99c2.68,0,4.02-1.65,4.02-4.94l0.33-0.33h1.51c0.62,0.22,0.92,0.85,0.92,1.88v11.36
	c0,1.23-0.31,1.84-0.92,1.84H92.8l-0.37-0.37c-0.1-3.22-1.45-4.95-4.06-5.17h-4.32c-1.87,0-2.81-0.71-2.8-2.14
	c0-1.43,0.94-2.14,2.8-2.14L88.38,40.99z"/>
<path id="Path_3" class="st1" d="M128.56,58.33l-1.88,4.13c-0.49,1.08-1.14,1.62-1.96,1.62c-0.9-0.06-1.67-0.66-1.95-1.51
	l-13.39-28.45c-0.56-1.29-1.68-2.26-3.04-2.64c-1.41-0.36-2.36-1.67-2.27-3.12h19.04c0.06,1.56-0.96,2.96-2.47,3.36
	c-1.65,0.59-2.1,1.51-1.37,2.77l9.3,21.18C128.96,56.52,128.96,57.49,128.56,58.33z M134.25,33.39c0.47-0.79-0.07-1.43-1.62-1.92
	c-1.43-0.33-2.41-1.64-2.33-3.1h14.09c-0.04,1.33-0.82,2.52-2.03,3.08c-1.06,0.4-1.96,1.15-2.54,2.12l-6.46,14.24
	c-0.76,1.9-1.88,2.55-3.34,1.96c-1.46-0.59-1.8-1.85-1.02-3.77L134.25,33.39z"/>
<path id="Path_4" class="st1" d="M169.22,24.9c0,1.38-0.85,2.1-2.54,2.18c-6.2,0.83-9.47,6.47-9.81,16.9
	c0,10.09,4.06,15.57,12.18,16.45c7.94-0.22,12.03-5.61,12.25-16.16c0-9.86-2.51-15.38-7.53-16.53c-1.06-0.31-1.68-1.4-1.4-2.47
	c0.32-1.48,1.42-1.97,3.32-1.48c9,2.78,15.08,11.17,14.91,20.59c-0.01,5.38-2.29,10.51-6.27,14.13c-8.49,8.12-21.86,8.12-30.35,0
	c-4.02-3.72-6.29-8.95-6.26-14.43c-0.12-5.7,2.16-11.18,6.27-15.13c3.52-3.35,8.05-5.45,12.88-5.97
	C168.44,22.96,169.22,23.6,169.22,24.9z"/>
<path id="Path_5" class="st1" d="M213.06,23.72c0,1.45-0.98,2.49-2.95,3.1s-2.94,1.44-2.91,2.47v30.48h13.02
	c1.43,0.21,2.77-0.75,3.02-2.18c1.48-3.49,3.03-5.13,4.65-4.9l-1.99,10.38c-0.15,0.68-0.79,1.13-1.48,1.03h-31.1
	c0-1.43,0.99-2.4,2.97-2.91c1.98-0.51,2.95-1.4,2.93-2.66V29.35c0-1.01-0.98-1.84-2.95-2.49c-1.97-0.65-2.95-1.69-2.95-3.12
	L213.06,23.72z"/>
<path id="Path_6" class="st1" d="M250.99,23.57c0,1.43-0.98,2.41-2.95,2.94s-3.06,1.52-3.28,2.96v21.59c0,5.93,3.41,9.04,10.22,9.34
	c7.85,0,11.77-3.31,11.77-9.93V29.14c0-1.08-0.99-1.92-2.97-2.53c-1.98-0.6-2.97-1.62-2.97-3.05h16.79c0,1.43-0.98,2.44-2.93,3.03
	c-1.95,0.59-2.94,1.54-2.97,2.84v21c-0.2,9-5.56,13.78-16.1,14.31h-2.17c-9,0-14.37-3.73-16.1-11.18c-0.45-2.74-0.65-5.52-0.59-8.3
	V29.73c0-1.52-0.98-2.58-2.95-3.15c-1.97-0.58-2.95-1.58-2.95-3.01L250.99,23.57L250.99,23.57z"/>
<path id="Path_7" class="st1" d="M289.03,28.26h-2.69c-1.48,0.1-2.4,1.17-2.77,3.21c-0.37,2.04-1.42,3.06-3.14,3.05v-9.63
	c0-0.79,0.42-1.18,1.26-1.18h7.01c1.94,0,2.91,0.75,2.91,2.25C291.61,27.4,290.75,28.16,289.03,28.26z M302.94,58.55
	c-0.03,1.13,0.94,1.98,2.9,2.54c1.96,0.56,2.93,1.56,2.93,2.99h-20c0-1.43,0.97-2.38,2.92-2.86c1.94-0.48,2.92-1.38,2.91-2.72V25
	c0-0.86,0.39-1.29,1.18-1.29h5.98c0.79,0,1.18,0.42,1.18,1.29V58.55z M316.11,23.71c0.83,0,1.25,0.37,1.25,1.11v9.71
	c-1.45,0-2.46-1.06-3.03-3.19c-0.56-2.13-1.56-3.19-2.99-3.19h-2.58c-1.89,0-2.84-0.74-2.84-2.22s0.95-2.22,2.84-2.21h7.35V23.71z"
	/>
<path id="Path_8" class="st1" d="M325.89,29.29c0-1.23-0.98-2.1-2.93-2.62c-1.96-0.52-2.93-1.5-2.94-2.95h19.7
	c0,1.45-0.98,2.44-2.93,2.95c-1.95,0.52-2.93,1.39-2.93,2.62v29.23c0,1.25,0.98,2.14,2.93,2.66c1.96,0.52,2.93,1.49,2.93,2.91h-19.7
	c0-1.43,0.98-2.4,2.94-2.91c1.96-0.51,2.93-1.4,2.93-2.66V29.29z"/>
<path id="Path_9" class="st1" d="M364.37,24.9c0,1.38-0.85,2.1-2.54,2.18c-6.2,0.83-9.47,6.47-9.81,16.9
	c0,10.09,4.06,15.57,12.17,16.45c7.94-0.22,12.03-5.61,12.25-16.16c0-9.86-2.51-15.38-7.53-16.53c-1.06-0.31-1.68-1.41-1.4-2.47
	c0.32-1.48,1.43-1.97,3.32-1.48c9,2.77,15.08,11.17,14.91,20.59c-0.01,5.38-2.29,10.51-6.28,14.13c-8.49,8.12-21.86,8.12-30.35,0
	c-4.02-3.72-6.29-8.95-6.26-14.43c-0.12-5.7,2.16-11.18,6.27-15.13c3.52-3.35,8.05-5.45,12.88-5.97
	C363.59,22.96,364.37,23.6,364.37,24.9z"/>
<path id="Path_10" class="st1" d="M430.24,62.87c-0.19,0.81-0.61,1.22-1.25,1.22h-1.44l-25.86-28.26h-0.33v22.69
	c0,0.98,1.03,1.8,3.09,2.45c2.07,0.65,3.1,1.69,3.1,3.12h-16.79c0-1.43,1-2.46,3.01-3.08c2-0.64,3.01-1.48,3.01-2.56V31.22
	c0-2.26-1.38-3.7-4.15-4.32c-2.77-0.62-4.15-1.64-4.15-3.06h11.99c0.82,0.02,1.56,0.47,1.95,1.18l27.16,30.33
	c0.44,0.54,0.68,1.22,0.66,1.92V62.87z M425.52,29.41c0.02-1.18-1-2.07-3.06-2.68c-2.07-0.61-3.1-1.6-3.1-3.01h16.97
	c0,1.45-1.03,2.47-3.1,3.06c-2.07,0.59-3.1,1.45-3.1,2.58v16.9c-0.03,1.99-0.8,2.99-2.33,2.99s-2.28-1-2.28-2.99V29.41z"/>
<g id="Group_1" transform="translate(79.274 160.451)">
	<path id="Path_11" class="st1" d="M24.91-74.66c-0.06,0.22-0.17,0.33-0.34,0.33h-0.39l-7.07-7.73h-0.09v6.2
		c0,0.27,0.28,0.49,0.85,0.67c0.57,0.18,0.85,0.46,0.85,0.85h-4.59c0-0.39,0.27-0.67,0.82-0.85s0.82-0.41,0.82-0.7v-7.44
		c0-0.62-0.38-1.01-1.14-1.18s-1.14-0.45-1.14-0.85h3.28c0.22,0,0.43,0.13,0.54,0.32l7.43,8.29c0.12,0.15,0.19,0.33,0.18,0.52
		L24.91-74.66z M23.62-83.8c0-0.32-0.28-0.57-0.85-0.73s-0.85-0.44-0.85-0.82h4.64c0,0.4-0.28,0.68-0.85,0.85
		c-0.56,0.17-0.85,0.4-0.85,0.71v4.62c0,0.54-0.21,0.82-0.64,0.82c-0.42,0-0.64-0.27-0.64-0.82L23.62-83.8z"/>
	<path id="Path_12" class="st1" d="M30.84-75.72c0,0.2,0.08,0.3,0.26,0.3h3.95c0.41-0.04,0.71-0.36,0.9-0.96
		c0.09-0.52,0.55-0.9,1.08-0.9l-0.53,2.41c-0.03,0.31-0.3,0.55-0.62,0.54h-8.85c0-0.39,0.27-0.65,0.81-0.79s0.8-0.38,0.8-0.72v-8.01
		c0-0.34-0.27-0.58-0.8-0.72c-0.54-0.14-0.81-0.4-0.81-0.79h8.59c0.57,0,0.85,0.36,0.85,1.09l0.11,1.69c-0.39,0-0.68-0.27-0.88-0.81
		c-0.2-0.54-0.45-0.81-0.78-0.81h-3.81c-0.14-0.02-0.27,0.08-0.29,0.22c0,0.02,0,0.05,0,0.07L30.84-75.72z M33.6-80.64
		c0.73,0,1.1-0.45,1.1-1.35l0.09-0.09h0.42c0.17,0.06,0.25,0.23,0.25,0.51v3.11c0,0.34-0.08,0.5-0.25,0.5h-0.39l-0.1-0.1
		c-0.03-0.88-0.4-1.35-1.11-1.41h-1.18c-0.51,0-0.77-0.19-0.77-0.58c0-0.39,0.25-0.59,0.77-0.59H33.6z"/>
	<path id="Path_13" class="st1" d="M41.68-75.72c0,0.2,0.08,0.3,0.26,0.3h3.95c0.41-0.04,0.71-0.36,0.9-0.96
		c0.09-0.52,0.55-0.9,1.08-0.9l-0.54,2.41c-0.03,0.31-0.3,0.55-0.62,0.54h-8.85c0-0.39,0.27-0.65,0.81-0.79s0.8-0.38,0.8-0.72v-8.01
		c0.01-0.34-0.26-0.58-0.8-0.72c-0.54-0.14-0.81-0.4-0.81-0.79h8.59c0.56,0,0.85,0.36,0.85,1.09l0.11,1.69
		c-0.39,0-0.68-0.27-0.88-0.81c-0.2-0.54-0.45-0.81-0.78-0.81h-3.8c-0.14-0.02-0.27,0.08-0.29,0.22c0,0.02,0,0.05,0,0.07
		L41.68-75.72z M44.44-80.64c0.73,0,1.1-0.45,1.1-1.35l0.09-0.09h0.42c0.17,0.06,0.25,0.23,0.25,0.51v3.11c0,0.34-0.08,0.5-0.25,0.5
		h-0.39l-0.1-0.1c-0.03-0.88-0.4-1.35-1.11-1.41h-1.18c-0.51,0-0.77-0.19-0.77-0.58c0-0.39,0.26-0.59,0.77-0.59H44.44z"/>
	<path id="Path_14" class="st1" d="M52.88-75.42h1.29c2.54,0,3.95-1.43,4.21-4.3c0-2.79-1.24-4.28-3.71-4.47h-3.91
		c-0.47-0.02-0.92-0.12-1.35-0.3c-0.49-0.19-0.73-0.49-0.73-0.87h5.83c1.88-0.08,3.72,0.58,5.11,1.84c0.89,1.03,1.34,2.36,1.27,3.71
		c-0.04,2.24-1.45,4.22-3.55,4.98c-0.98,0.33-2,0.5-3.02,0.5h-5.64c0-0.38,0.28-0.65,0.83-0.79s0.83-0.39,0.85-0.73v-6.02
		c0-0.96,0.37-1.43,1.09-1.43s1.09,0.48,1.09,1.43v6.14C52.57-75.52,52.67-75.42,52.88-75.42z"/>
	<path id="Path_15" class="st1" d="M67.4-85.36c0,0.4-0.27,0.68-0.81,0.85s-0.8,0.39-0.8,0.68v8.33h3.56
		c0.39,0.06,0.76-0.21,0.83-0.6c0.4-0.95,0.83-1.4,1.27-1.34l-0.54,2.83c-0.04,0.18-0.22,0.31-0.4,0.28h-8.5
		c0-0.39,0.27-0.66,0.81-0.8c0.54-0.14,0.81-0.38,0.8-0.73v-7.98c0-0.28-0.27-0.51-0.81-0.68C62.27-84.69,62-84.97,62-85.37
		L67.4-85.36z"/>
	<path id="Path_16" class="st1" d="M76-75.72c0,0.2,0.09,0.3,0.26,0.3h3.95c0.41-0.04,0.71-0.36,0.9-0.96
		c0.09-0.52,0.55-0.9,1.08-0.9l-0.53,2.41c-0.03,0.31-0.3,0.55-0.61,0.54H72.2c0-0.39,0.27-0.65,0.81-0.79s0.8-0.38,0.79-0.72v-8.01
		c0-0.34-0.26-0.58-0.79-0.72s-0.81-0.4-0.81-0.79h8.59c0.57,0,0.85,0.36,0.85,1.09l0.11,1.69c-0.39,0-0.68-0.27-0.88-0.81
		c-0.2-0.54-0.45-0.81-0.78-0.81h-3.8c-0.14-0.02-0.27,0.08-0.29,0.22c0,0.02,0,0.05,0,0.07V-75.72z M78.76-80.64
		c0.73,0,1.1-0.45,1.1-1.35l0.09-0.09h0.42c0.17,0.06,0.25,0.23,0.25,0.51v3.11c0,0.34-0.08,0.5-0.25,0.5h-0.39l-0.1-0.1
		c-0.03-0.88-0.4-1.35-1.11-1.41h-1.18c-0.51,0-0.77-0.19-0.77-0.58c0-0.39,0.26-0.59,0.77-0.59H78.76z"/>
	<path id="Path_17" class="st1" d="M84.54-74.88c-0.1,0.34-0.42,0.57-0.78,0.55v-3.81c0.36,0,0.62,0.23,0.77,0.69
		c0.09,0.33,0.23,0.65,0.4,0.94c0.03,0.05,0.07,0.1,0.11,0.15c0.53,0.55,1.28,0.84,2.04,0.8c0.93-0.03,1.4-0.33,1.4-0.9v-0.21
		c0-0.59-0.88-1.3-2.64-2.12c-1.45-0.63-2.18-1.48-2.18-2.56c0-1.67,1.04-2.59,3.12-2.75c0.86-0.04,1.73,0.14,2.5,0.53
		c0.09-0.32,0.39-0.54,0.72-0.53v3.57c-0.34,0-0.58-0.21-0.72-0.64c-0.09-0.31-0.21-0.61-0.38-0.88c-0.08-0.12-0.17-0.22-0.27-0.31
		c-0.51-0.28-1.08-0.42-1.65-0.41h-0.4c-0.68,0.03-1.02,0.31-1.02,0.82c0,0.69,0.8,1.31,2.39,1.87c1.84,0.83,2.75,1.76,2.75,2.8
		c0,1.79-1.21,2.78-3.62,2.94c-0.73,0.03-1.46-0.09-2.14-0.36C84.81-74.76,84.68-74.81,84.54-74.88z"/>
</g>
</svg>
