<svg id="Layer_1" data-name="Layer 1" xmlns="http://www.w3.org/2000/svg" viewBox="0 0 157.8 116.02"><defs><style>.cls-1{fill:#231f20;}</style></defs><path class="cls-1" d="M66.78,76.42" transform="translate(-28.93 -5.73)"/><path class="cls-1" d="M186.72,80.08,173.36,54.44H141.17V42.81H101.58v8h31.59V99H89.31a15.93,15.93,0,0,0-28.88,0H52V76.42H44V107H59a16,16,0,0,0,31.82,0h52.27a16,16,0,0,0,31.82,0h11.85ZM74.87,113.75a8,8,0,1,1,8-8A8,8,0,0,1,74.87,113.75Zm84.09,0a8,8,0,1,1,8-8A8,8,0,0,1,159,113.75ZM178.72,99h-5.31a15.94,15.94,0,0,0-28.89,0h-3.35V62.44h27.34L178.72,82Z" transform="translate(-28.93 -5.73)"/><path class="cls-1" d="M62,5.73A33.09,33.09,0,1,0,95.11,38.82,33.12,33.12,0,0,0,62,5.73ZM60,23.61a30.49,30.49,0,0,1-7.76-1.49c2-4.65,4.7-7.94,7.76-9Zm0,4v9.2H49.21a45.4,45.4,0,0,1,1.72-10.93A34.93,34.93,0,0,0,60,27.62Zm0,13.2V50a34.13,34.13,0,0,0-9.09,1.73,45.48,45.48,0,0,1-1.72-10.93ZM60,54V64.47c-3.06-1-5.8-4.3-7.76-8.95A30.49,30.49,0,0,1,60,54Zm4,0a30.5,30.5,0,0,1,7.75,1.5c-2,4.65-4.69,7.94-7.75,8.95Zm0-4v-9.2H74.83A46,46,0,0,1,73.1,51.75,34.13,34.13,0,0,0,64,50Zm0-13.2v-9.2a34.94,34.94,0,0,0,9.08-1.73,45.88,45.88,0,0,1,1.73,10.93Zm0-13.21V13.16c3.06,1,5.79,4.31,7.75,9A30.49,30.49,0,0,1,64,23.61Zm3.12-13.42A29,29,0,0,1,81,16.84a25.92,25.92,0,0,1-5.56,3.74C73.42,15.71,70.52,12.05,67.14,10.19ZM48.55,20.58A25.61,25.61,0,0,1,43,16.84a29,29,0,0,1,13.89-6.65C53.51,12.05,50.62,15.71,48.55,20.58Zm-1.37,3.78a49.55,49.55,0,0,0-2,12.46H33a29,29,0,0,1,7.15-17.16A29.58,29.58,0,0,0,47.18,24.36Zm-2,16.46a49.47,49.47,0,0,0,2,12.45,29.92,29.92,0,0,0-7,4.71A29,29,0,0,1,33,40.82Zm3.35,16.24c2.07,4.86,5,8.53,8.34,10.39A29,29,0,0,1,43,60.8,25.25,25.25,0,0,1,48.55,57.06Zm26.93,0A25.56,25.56,0,0,1,81,60.8a29,29,0,0,1-13.9,6.65C70.52,65.59,73.42,61.92,75.48,57.06Zm1.37-3.79a49,49,0,0,0,2-12.45H91A29,29,0,0,1,83.88,58,29.92,29.92,0,0,0,76.85,53.27Zm2-16.45a49.1,49.1,0,0,0-2-12.46,29.58,29.58,0,0,0,7-4.7A29,29,0,0,1,91,36.82Z" transform="translate(-28.93 -5.73)"/></svg>