<svg xmlns="http://www.w3.org/2000/svg" viewBox="0 0 216.26 71.54"><path d="M190.8,24.25c2.49,0,2.42,4.23,2.42,7.77v.84h-5.84v-9H177.2v.37c2.49,0,2.49,4.33,2.49,7.9h0v6.17h0c0,3.57,0,7.9-2.49,7.9v.36h12.6v-.36c-2.49,0-2.42-4.33-2.42-7.9v-.8h5.84v9.06h10.19v-.36c-2.5,0-2.49-4-2.5-7.48v-7c0-3.47,0-7.47,2.5-7.47v-.37H190.8Z" transform="translate(-21.38 -23.88)"/><path d="M35.16,23.88H21.38v.37c2.5,0,2.49,4.16,2.5,7.68v3.49l-2.5,2.09,2.49,2.13v0c0,3.13-.29,6.56-2.49,6.56v.36H34.06v-.36c-2.49,0-2.45-3.35-2.49-6.58h3.59c5.71,0,9.28-2.85,9.28-7.88s-3.57-7.88-9.28-7.88M33.57,35.42h-2V28.11h2c1.85,0,2.86,1.67,2.86,3.65s-1,3.66-2.86,3.66" transform="translate(-21.38 -23.88)"/><path d="M53,24.25c2.5,0,2.5,4.33,2.5,7.9v6.17c0,3.57,0,7.9-2.5,7.9v.36H65.71v-.36c-2.47,0-2.49-4.18-2.5-7.7V32c0-3.53,0-7.7,2.5-7.7v-.37H53Z" transform="translate(-21.38 -23.88)"/><path d="M155.65,24.25c2.49,0,2.49,4,2.49,7.52V35h-.38L151.5,23.88H142v.37c2.49,0,2.49,4.23,2.49,7.77v6.43c0,3.54,0,7.77-2.49,7.77v.36H153.8v-.36c-2.5,0-2.49-4.18-2.5-7.7v-3.7h.39l6.65,11.76h9.14v-.36c-2.49,0-2.49-4.33-2.49-7.9V32.15c0-3.57,0-7.9,2.49-7.9v-.37H155.65Z" transform="translate(-21.38 -23.88)"/><path d="M131.19,39.5l-2.88-8.58c-1.1-3.24-2.14-6.67.63-6.67v-.37H114v.37c2.58,0,1.44,3.44.36,6.67-.73,2.17-2.18,6.47-2.89,8.6-1.26,3.74-2.48,6.7-4.73,6.7v.36h11.92v-.36c-1.45,0-2.16-.84-1.25-3.49h7.79c.91,2.68.4,3.49-1.25,3.49v.36h11.92v-.36C133.66,46.22,132.25,42.66,131.19,39.5Zm-9.91.14-2.15-2.14,2.14-6.39,2.15,6.39Z" transform="translate(-21.38 -23.88)"/><path d="M233,39.5l-2.89-8.58c-1.1-3.24-2.14-6.67.63-6.67v-.37h-15v.37c2.58,0,1.44,3.44.35,6.67-.73,2.17-2.17,6.47-2.89,8.6-1.26,3.74-2.48,6.7-4.73,6.7v.36h11.92v-.36c-1.45,0-2.15-.84-1.25-3.49H227c.9,2.68.4,3.49-1.26,3.49v.36h11.92v-.36C235.46,46.22,234.05,42.66,233,39.5Zm-9.92.14-2.14-2.14,2.14-6.39,2.14,6.39Z" transform="translate(-21.38 -23.88)"/><path d="M96.88,42c-.68-1.17-2.72-4.79-2.72-4.79,2.73-1.26,4-3.14,4-5.87,0-4.44-2.89-7.49-9.34-7.49H75.42v.37c2.5,0,2.49,4.17,2.5,7.7v6.57c0,3.52,0,7.7-2.5,7.7v.36H88.09v-.36c-2.49,0-2.47-3.87-2.49-7.3v-.05h1.84l4.22,7.71h9.55v-.36c-1.87,0-3-1.95-4.33-4.19m-9.46-7.39H85.6V28.11h1.82c1.94,0,2.72,1.45,2.72,3.26s-.78,3.27-2.72,3.27" transform="translate(-21.38 -23.88)"/><path d="M190.21,24.25c2.5,0,2.43,4.23,2.43,7.77v.84h-5.85v-9H176.61v.37c2.5,0,2.5,4.33,2.5,7.9h0v6.17h0c0,3.57,0,7.9-2.5,7.9v.36h12.61v-.36c-2.5,0-2.43-4.33-2.43-7.9v-.8h5.85v9.06h10.18v-.36c-2.49,0-2.48-4-2.49-7.48v-7c0-3.47,0-7.47,2.49-7.47v-.37H190.21Z" transform="translate(-21.38 -23.88)"/><path d="M177.66,71.93c.05.22.33.82.9.72.3-.09.32-.32.38-.54a5.89,5.89,0,0,1,1.21-1.93c.2-.29.72-1.12.59-1.48a2,2,0,0,0-.5-.89c-.34-.32-1.22-.59-1.56-.27a3.46,3.46,0,0,0-.67,1.07,5.6,5.6,0,0,0-.44,2.68A3.75,3.75,0,0,0,177.66,71.93Z" transform="translate(-21.38 -23.88)"/><path d="M196.2,84.12a13.35,13.35,0,0,0-3.24.11,8.76,8.76,0,0,0-1-2.64c-.75-1.3-1-2.64-.58-3s1.24-.71,1.73-1.1a.76.76,0,0,0,.17-1,2.77,2.77,0,0,0-3.94-.35,3.09,3.09,0,0,0-.86,2,15.18,15.18,0,0,1-2.45,0,3.2,3.2,0,0,0-4.17-2.33c-2.18.83-2.65,5.63-2.68,5.66-.23.19-2.88,2.32-3.46,2.8a53.7,53.7,0,0,1,2.5-6.91.82.82,0,0,0-.26-1.09c-.16-.1-2.31-.7-2.46-.31-.45,1.18-.58,2.19-1.07,2.68s-4.05,4.85-4.05,4.85-.35.15-.4-.1a2,2,0,0,1,0-.73c.08-.43,2.91-12.29,2.95-12.52a1.12,1.12,0,0,0-.17-1c-.37-.44-2-.65-2.19-.67s-.35.38-.35.38c-.44.91-1.81,9.07-1.81,9.07A.24.24,0,0,1,168,78c-.43-.45-1.05-1.44-2.24-1.46a3.47,3.47,0,0,0-2.4,1.28,7.87,7.87,0,0,0-1.68,3.51c-.58.49-2.95,2.73-3.41,3.16a.28.28,0,0,1,0-.1c.06-.22.53-1.92,1.08-3.42.62-1.67,1.3-3.18.87-4-.25-.47-2.45-.65-2.48-.65-.53,0-.73,2-.86,2.6a21.22,21.22,0,0,1-.61,2.64,30.66,30.66,0,0,1-3.17,3.23c.1-2,1.84-7.69,1.59-8.06s-2.87-1.17-3-.52a18.4,18.4,0,0,1-.46,3.33c-.28.37-4.16,4.69-4.67,5.31,0,0-.1,0,0-.57s2.89-10.82,3-11.48c.29,0,9.56,0,10.47,0,.51,0,.52-.6.52-.82,0-.94-3.94-.79-5.6-.81-1.18,0-4,0-5.11,0,.12-.4.91-2.9-.2-3.09a17.81,17.81,0,0,0-1.81-.31.72.72,0,0,0-.81.68c-.05.39-.26,2-.36,2.47-.07.31,0,.24-.23.25-.61.06-2.92.06-3.32.07-.22,0-.26.22-.28.45s0,.69.25.83a13.51,13.51,0,0,0,3,.23c.16,0,.33-.07.3.1a51,51,0,0,1-1,5.48c-.3.32-4.44,5.23-4.66,5.52-.15-.5-1.19-4.06-1.33-4.64s1.25-1.64,1.7-2-.25-1.36-1.2-1.48c-3.81-.47-3.32,3.27-3.15,3.76s-7.23,5.77-8.15,11.84c-.39,2.61,1.22,3.74,1.83,4a.91.91,0,0,0,.79,0c.25-.16.71-.71.34-1-.66-.53-4.81-3.79,5.92-13.55.19.31,2.39,4,2.19,4.25-.35.43-1.86,2-1.85,3.08,0,.59,1,.92,1.5.48a6.08,6.08,0,0,0,1.46-2,2.1,2.1,0,0,1,.55-1.15c.36-.48,3.59-4.26,3.76-4.45,0,.19-.7,3.67-.14,5.64.14.51.74,1.1,1.25.58.31-.31,4.73-5.14,4.76-5.13,0,.17-.75,4.66,1.15,4.66,1,0,2.2-1.43,4-3.18,0,.19-.62,4.09,1.7,3.24.15,0,2.75-2.9,3.42-3.64,0,0,.19,0,.19.08-.12,2.75,1.24,3.31,1.56,3.36.83.11,1.28-1.1,2.55-2.58.38-.43,1.82-2.13,1.87-2.21s.41-.18.53,0A.25.25,0,0,1,168,82a18.13,18.13,0,0,0,0,3.58c.13.56.4,1.29,1,1.29s2.32-2.8,2.72-3.29c.11-.14,1.58-1.81,1.84-2.12.56-.47.44.75.43.78-.1.8-.73,4.67.45,4.77.65.06,2.66-2.17,3-2.45s1.65-1.41,1.89-1.66c.08.32.58,3.71,2.28,3.93,2.07.25,3.74-2.8,4.25-4.94a13.56,13.56,0,0,0,.26-2.58,14,14,0,0,0,2.4-.11,6.16,6.16,0,0,0,.64,1.42c.17.26,2.16,3.08,2.3,3.89-.85.34-1.75,1.14-2.5,1.11-.52,0-1.11-.42-1.43,0-.89,1.15,1.11,2.28,2.51,1.88a5.5,5.5,0,0,0,2.74-2,.53.53,0,0,1,.25-.22,12.7,12.7,0,0,1,2.9-.1,9.53,9.53,0,0,1,4,1.23,2.4,2.4,0,0,0,1.47.51.65.65,0,0,0,.57-.81C201.78,85.11,198.76,84.38,196.2,84.12ZM167.38,80.4a27.64,27.64,0,0,1-2.63,3c-.05,0-.41.16-.4-.17a6.33,6.33,0,0,1,1.52-4.3,1.09,1.09,0,0,1,.81-.35c.1,0,.94,0,.95.69A2,2,0,0,1,167.38,80.4Zm17,2.34c-.17.63-1.08,2.89-1.86,2.89-1,0-.89-3.16-.62-4.29a5.61,5.61,0,0,1,1.51-3.09l1.26.73A10,10,0,0,1,184.41,82.74Z" transform="translate(-21.38 -23.88)"/><path d="M124.08,79.81c-.19-.24-.42-.28-1.29-.24-3.23.15-5.22-.37-5.9-1.07a2.06,2.06,0,0,0-.87-.9A3,3,0,0,0,111.8,79c-.06.16-.15.37-.37.38-.39,0-2.87.08-2.89-.4s-.25-1.43-1.84-2.06a2.48,2.48,0,0,0-3,1,8.18,8.18,0,0,0-1.11,2.52l-4.44,5.44a.12.12,0,0,1-.21-.09,91,91,0,0,1,2.42-12.12s5,.07,6.7.07,6.07-.12,6.35-.41.33-1.13-.09-1.16c-1.92-.14-5.68,0-6.63,0-3.41,0-5.45,0-5.92,0,.07-.23.3-1.33.47-2.16.08-.44.27-1.22-.92-1.47-.38-.07-.76-.15-1.13-.25-.79-.24-1-.16-1.12.56-.07.36-.56,3.11-.58,3.28-.13,0-2,0-3.93-.06.07-.23.35-1.56.44-2.19s.38-1.23-1.34-1.75c-1.56-.47-1.78-.11-1.89,1,0,.37-.39,2.82-.41,3-.13,0-10.55.13-16,.22.06-.29.67-2.93.71-3.16a1,1,0,0,0-.85-1.26c-.37-.11-1.26-.28-1.63-.39s-.65,0-.71.27c-.15.55-.74,4.38-.8,4.69-.56.06-6.9,0-7.53,0-4.61-.08-8.88-.4-9.26-.4s-.49.55-.2,1a2.37,2.37,0,0,0,2.08,1c.73,0,14.47,0,14.72-.06,0,.34-.82,4.79-1.14,7.32-.47,3.7-.72,5.39-.17,6.19a.86.86,0,0,0,1.23.32c.26-.24,4.18-3.72,4.69-4.12A4.81,4.81,0,0,0,76.32,87c.16.2,1.18,1.25,1.8.79s4-4.26,4.07-4.34c-.09.54-.37,3.55.9,4.46a.79.79,0,0,0,1-.06c.44-.47,4-4.59,4.59-5.21,0,.11-.43,2.55.18,4,.72,1.7,2,1.6,2.31,1.32s4.55-4.65,4.73-4.82A7.8,7.8,0,0,0,96,86.25c.67,2.11,2.23,1.57,2.58,1.23s3.34-4.34,3.69-4.72c0,.1,0-.05,0,0,0,.36-.06,3.57,1.56,4.86.54.42.62.59,1.25.42.85-.22,1.69-1.65,2.76-4.16a12.84,12.84,0,0,0,.75-3.68,6.07,6.07,0,0,0,2.16.29c.54-.06.42,0,.36.34-.1.53-1.4,7.38,3.14,7,1-.08,1.82-1.66,2.28-2.84a27.59,27.59,0,0,0,1.07-4.77,23.83,23.83,0,0,0,4,.57C123.71,80.91,124.66,80.52,124.08,79.81ZM81.3,81.62a39.94,39.94,0,0,1-3,3.72c-.41-.32-.63-2.21.33-4.07.18-.35,1.11-2.34,1.83-2.25C81.51,79.16,81.73,81.12,81.3,81.62ZM89,79.71a52.22,52.22,0,0,1-4.91,5.83,64.32,64.32,0,0,1,2.29-7.49c.16-.46-.16-.76-.58-.89a7.83,7.83,0,0,0-2-.41c-.59,0-.71,1.91-.83,2.49a.6.6,0,0,1-.13.21A4.05,4.05,0,0,0,80,77.37a2.65,2.65,0,0,0-2.75.83,7.4,7.4,0,0,0-1.79,3.72c0,.07-3.49,2.75-3.66,2.85a78,78,0,0,1,1.94-10.5c.08-.35.73-.28,1.1-.29L90,73.69C90,74.15,89.07,79.44,89,79.71Zm7.32.74c-.24.27-4.53,4.73-5.56,5.48-.08.06-.1-.1-.1-.19.12-1.81,2.43-11.79,2.51-12,0-.07,4,0,4.1,0C97.19,74.12,96.3,80.45,96.3,80.45ZM107,83.2A13.07,13.07,0,0,1,105,86.53c-.2.14-.33.08-.44-.13a3.46,3.46,0,0,1-.28-1.73,13,13,0,0,1,.58-2.41,18.48,18.48,0,0,1,1.43-3c.08-.13.17-.15.32,0s1,.43,1,.53A12.9,12.9,0,0,1,107,83.2Zm7.3,3.09c-.21.19-2.33-.09.45-6.62.09-.21.23-.38.5-.27a3,3,0,0,1,.86.38C116.57,80.2,115.82,85,114.27,86.29Z" transform="translate(-21.38 -23.88)"/></svg>