<svg id="Layer_1" data-name="Layer 1" xmlns="http://www.w3.org/2000/svg" viewBox="0 0 37.31 37.31"><defs><style>.cls-1{fill:#fff;}</style></defs><rect class="cls-1" x="6.57" y="3.7" width="37.31" height="37.31" rx="18.66" transform="translate(41.02 -6.57) rotate(90)"/><path d="M31,15.33a1.28,1.28,0,1,0,1.28,1.28A1.28,1.28,0,0,0,31,15.33Z" transform="translate(-6.57 -3.7)"/><path d="M25.32,17a5.39,5.39,0,1,0,5.39,5.39A5.4,5.4,0,0,0,25.32,17Zm0,8.84a3.45,3.45,0,1,1,3.45-3.45A3.46,3.46,0,0,1,25.32,25.81Z" transform="translate(-6.57 -3.7)"/><path d="M29.6,33.3H20.86a6.58,6.58,0,0,1-6.57-6.57V18a6.58,6.58,0,0,1,6.57-6.57H29.6A6.58,6.58,0,0,1,36.17,18v8.74A6.58,6.58,0,0,1,29.6,33.3ZM20.86,13.48A4.51,4.51,0,0,0,16.35,18v8.74a4.51,4.51,0,0,0,4.51,4.51H29.6a4.52,4.52,0,0,0,4.51-4.51V18a4.52,4.52,0,0,0-4.51-4.51Z" transform="translate(-6.57 -3.7)"/></svg>